<svg xmlns="http://www.w3.org/2000/svg" viewBox="0 0 1200 630" width="1200" height="630" role="img" aria-label="Albert Polo — Infraestructura Azure y Microsoft 365">
  <rect width="1200" height="630" fill="#faf8f5"/>

  <!-- retícula sutil -->
  <g stroke="#3a332c" stroke-opacity="0.07">
    <path d="M0 90h1200M0 540h1200"/>
    <path d="M90 0v630M1110 0v630"/>
  </g>

  <!-- host pool decorativo -->
  <g fill="none" stroke="#c86a3a" stroke-opacity="0.5">
    <rect x="812" y="360" width="26" height="26"/><rect x="846" y="360" width="26" height="26"/>
    <rect x="880" y="360" width="26" height="26"/><rect x="914" y="360" width="26" height="26"/>
    <rect x="948" y="360" width="26" height="26"/><rect x="982" y="360" width="26" height="26"/>
    <rect x="812" y="394" width="26" height="26"/><rect x="846" y="394" width="26" height="26"/>
    <rect x="880" y="394" width="26" height="26"/><rect x="914" y="394" width="26" height="26"/>
    <rect x="948" y="394" width="26" height="26"/><rect x="982" y="394" width="26" height="26"/>
    <rect x="812" y="428" width="26" height="26"/><rect x="846" y="428" width="26" height="26"/>
    <rect x="880" y="428" width="26" height="26"/><rect x="914" y="428" width="26" height="26"/>
    <rect x="948" y="428" width="26" height="26"/><rect x="982" y="428" width="26" height="26"/>
  </g>

  <text x="140" y="240"
        font-family="Georgia, 'Times New Roman', serif" font-size="82" fill="#2a241e">Albert Polo</text>
  <text x="140" y="322"
        font-family="Georgia, 'Times New Roman', serif" font-size="82" fill="#2a241e">Fernández</text>

  <text x="142" y="386"
        font-family="Consolas, 'Courier New', monospace" font-size="25" letter-spacing="3" fill="#c86a3a">CLOUD SYSTEM ENGINEER</text>

  <text x="142" y="452"
        font-family="Arial, Helvetica, sans-serif" font-size="27" fill="#5b5248">Infraestructura Azure y Microsoft 365</text>
  <text x="142" y="492"
        font-family="Arial, Helvetica, sans-serif" font-size="27" fill="#5b5248">Azure Virtual Desktop · Identidad híbrida · Bicep</text>

  <text x="142" y="574"
        font-family="Consolas, 'Courier New', monospace" font-size="21" letter-spacing="2" fill="#8a8076">BARCELONA · CATALUNYA</text>
</svg>
